<?xml version="1.0" encoding="UTF-8"?><svg id="a" xmlns="http://www.w3.org/2000/svg" viewBox="0 0 916 949"><path d="M885.37,78H375.2C349.47,31.49,299.91,0,243,0S136.53,31.49,110.8,78H30.63c-16.92,0-30.63,13.71-30.63,30.63v84.74c0,16.92,13.71,30.63,30.63,30.63H110.79c25.73,46.51,75.29,78,132.21,78s106.48-31.49,132.21-78h510.16c16.92,0,30.63-13.71,30.63-30.63V108.63c0-16.92-13.71-30.63-30.63-30.63ZM278.16,224c-10.63,5.13-22.56,8-35.16,8s-24.53-2.87-35.16-8c-27.13-13.09-45.84-40.86-45.84-73s18.71-59.91,45.84-73c10.63-5.13,22.56-8,35.16-8s24.53,2.87,35.16,8c27.13,13.09,45.84,40.86,45.84,73s-18.71,59.91-45.84,73Z"/><path d="M885.37,401.5h-80.17c-25.73-46.51-75.29-78-132.2-78s-106.47,31.49-132.2,78H30.63c-16.92,0-30.63,13.71-30.63,30.63v84.74c0,16.92,13.71,30.63,30.63,30.63h510.17c25.73,46.51,75.29,78,132.2,78s106.47-31.49,132.2-78h80.17c16.92,0,30.63-13.71,30.63-30.63v-84.74c0-16.92-13.71-30.63-30.63-30.63Zm-177.21,146c-10.63,5.13-22.56,8-35.16,8s-24.53-2.87-35.16-8c-27.13-13.09-45.84-40.86-45.84-73s18.71-59.91,45.84-73c10.63-5.13,22.56-8,35.16-8s24.53,2.87,35.16,8c27.13,13.09,45.84,40.86,45.84,73s-18.71,59.91-45.84,73Z"/><path d="M885.37,725H375.21c-25.73-46.51-75.29-78-132.21-78s-106.48,31.49-132.21,78H30.63c-16.92,0-30.63,13.71-30.63,30.63v84.74c0,16.92,13.71,30.63,30.63,30.63H110.79c25.73,46.51,75.29,78,132.21,78s106.48-31.49,132.21-78h510.16c16.92,0,30.63-13.71,30.63-30.63v-84.74c0-16.92-13.71-30.63-30.63-30.63Zm-607.23,146c-10.63,5.13-22.55,8-35.14,8s-24.53-2.87-35.16-8c-27.13-13.09-45.84-40.86-45.84-73s18.71-59.91,45.84-73c10.63-5.13,22.56-8,35.16-8s24.53,2.87,35.16,8c27.13,13.09,45.84,40.86,45.84,73s-18.72,59.92-45.86,73Z"/></svg>